<svg width="32" height="32" viewBox="0 0 32 32" fill="none" xmlns="http://www.w3.org/2000/svg">
<rect width="32" height="32" rx="16" fill="white"/>
<path fill-rule="evenodd" clip-rule="evenodd" d="M9.97687 15.0795C9.97687 12.2748 12.2579 9.97687 15.0795 9.97687C17.9012 9.97687 20.1653 12.2748 20.1653 15.0795C20.1653 17.8843 17.8843 20.1822 15.0795 20.1822C12.2748 20.1822 9.97687 17.9012 9.97687 15.0795ZM23.3418 22.7843L20.3512 19.7936C21.4663 18.5433 22.1591 16.8875 22.1591 15.0795C22.1591 11.1765 18.9826 8 15.0795 8C11.1765 8 8 11.1765 8 15.0795C8 18.9826 11.1765 22.1591 15.0795 22.1591C16.465 22.1591 17.7492 21.7536 18.8305 21.0777L21.9394 24.1867C22.1253 24.3725 22.3787 24.4739 22.6322 24.4739C22.8856 24.4739 23.1391 24.3725 23.3249 24.1867C23.7305 23.798 23.7305 23.1729 23.3418 22.7843Z" fill="black"/>
</svg>
