<svg width="33" height="32" viewBox="0 0 33 32" fill="none" xmlns="http://www.w3.org/2000/svg">
<rect x="0.800049" width="32" height="32" rx="16" fill="white"/>
<path fill-rule="evenodd" clip-rule="evenodd" d="M16.4384 8.08781C14.5605 8.08781 13.0414 9.60694 13.0414 11.4847C13.0414 13.3625 14.5605 14.8817 16.4384 14.8817C18.3162 14.8817 19.8353 13.3625 19.8353 11.4847C19.8353 9.60694 18.3162 8.08781 16.4384 8.08781ZM16.4384 16.5696C13.6322 16.5696 11.3535 14.2909 11.3535 11.4847C11.3535 8.67858 13.6322 6.3999 16.4384 6.3999C19.2445 6.3999 21.5232 8.67858 21.5232 11.4847C21.5232 14.2909 19.2445 16.5696 16.4384 16.5696Z" fill="#020202"/>
<path fill-rule="evenodd" clip-rule="evenodd" d="M9.81332 20.3886C9.89772 20.4941 9.9608 20.5995 10.0454 20.705C10.2986 21.0428 10.5518 21.338 10.8472 21.6123C11.1004 21.8655 11.3746 22.0978 11.67 22.3088C13.0626 23.3424 14.7081 23.8912 16.4595 23.8912C18.1894 23.8912 19.8564 23.3424 21.2487 22.3088C21.5443 22.0978 21.8186 21.8655 22.0718 21.6123C22.367 21.338 22.6415 21.0215 22.8735 20.705C22.9579 20.5995 23.0212 20.4941 23.1054 20.3886C23.0421 20.3044 22.9999 20.1989 22.9366 20.1143C22.2406 19.0804 21.1856 18.3842 19.9828 18.1732C18.9069 18.8905 17.7043 19.2703 16.4384 19.2703C15.1724 19.2703 13.9696 18.8905 12.936 18.1943C11.7333 18.4053 10.6784 19.1015 9.98211 20.1354C9.91882 20.2198 9.85531 20.3044 9.81332 20.3886ZM16.4384 25.6C14.3285 25.6 12.3241 24.9461 10.6573 23.6802C10.2986 23.4268 9.98211 23.1314 9.66563 22.8362C9.32783 22.4984 8.99046 22.1187 8.69487 21.7389C8.48388 21.4648 8.2942 21.1903 8.12541 20.8949C7.97772 20.6628 7.95641 20.3675 8.08321 20.1143C8.2309 19.7978 8.39969 19.4813 8.58937 19.1859C9.58123 17.709 11.1426 16.7173 12.8938 16.4853C13.2102 16.4431 13.5267 16.5275 13.7799 16.7173C14.5395 17.2659 15.4678 17.5824 16.4384 17.5824C17.4087 17.5824 18.3373 17.287 19.1179 16.7173C19.3711 16.5275 19.6876 16.4431 20.0041 16.4853C21.7553 16.7173 23.3164 17.709 24.3081 19.1859C24.4982 19.4813 24.6669 19.7769 24.8146 20.0934C24.9201 20.3464 24.8988 20.6417 24.7724 20.8738C24.6037 21.1692 24.3927 21.4648 24.2026 21.7389C23.9074 22.1398 23.5909 22.4984 23.2322 22.8362C22.9366 23.1314 22.5993 23.4268 22.2406 23.6802C20.5527 24.9461 18.5483 25.6 16.4384 25.6Z" fill="#020202"/>
</svg>
