<svg width="34" height="34" viewBox="0 0 34 34" fill="none"
                xmlns="http://www.w3.org/2000/svg">
                <rect x="1" y="1" width="32" height="32" rx="16" stroke="white" />
                <path fill-rule="evenodd" clip-rule="evenodd"
                    d="M16.995 11C16.995 11 11.9944 11 10.7393 11.3495C10.0673 11.5508 9.51391 12.1438 9.32614 12.8746C9.00001 14.2197 9 17.0053 9 17.0053C9 17.0053 9.00001 19.8015 9.32614 21.1254C9.51391 21.8562 10.0574 22.4386 10.7393 22.6399C12.0043 23 16.995 23 16.995 23C16.995 23 22.0056 23 23.2607 22.6505C23.9426 22.4492 24.486 21.8774 24.6639 21.136C24.9999 19.8015 24.9999 17.0159 24.9999 17.0159C24.9999 17.0159 25.0098 14.2197 24.6639 12.8746C24.486 12.1438 23.9426 11.5614 23.2607 11.3707C22.0056 11 16.995 11 16.995 11ZM15.4039 14.4316L19.5646 17.0053L15.4039 19.5684V14.4316Z"
                    fill="white" />
            </svg>