<svg width="205" height="48" viewBox="0 0 205 48" fill="none"
        xmlns="http://www.w3.org/2000/svg">
        <path fill-rule="evenodd" clip-rule="evenodd"
            d="M121.35 43.3859C121.35 45.9811 123.171 47.998 125.507 47.998C127.843 47.998 129.652 45.9811 129.652 43.3859C129.652 40.855 127.843 38.8965 125.507 38.8965C123.171 38.8965 121.35 40.857 121.35 43.3859ZM156.085 43.3859C156.085 45.9811 157.906 47.998 160.242 47.998C162.578 47.998 164.388 45.9811 164.388 43.3859C164.388 40.855 162.578 38.8965 160.242 38.8965C157.906 38.8965 156.085 40.857 156.085 43.3859ZM165.421 46.8414C165.421 46.8414 166.385 47.9998 168.104 47.9998C169.707 47.9998 170.669 46.8804 170.669 45.5215C170.669 43.932 169.457 43.3771 168.382 42.8845C167.523 42.4913 166.752 42.1379 166.752 41.3299C166.752 40.6349 167.358 40.047 168.218 40.047C169.251 40.047 169.995 40.8082 169.995 40.8082L170.508 39.788C170.508 39.788 169.719 38.9022 168.218 38.9022C166.693 38.9022 165.607 39.9866 165.607 41.3591C165.607 42.8305 166.764 43.3804 167.821 43.8822C168.707 44.3034 169.522 44.6907 169.522 45.5604C169.522 46.3976 168.882 46.857 168.125 46.857C166.923 46.857 166.065 45.9109 166.065 45.9109L165.421 46.8414ZM174.027 47.8482H175.157V40.1172H177.932V39.0504H171.252V40.1192H174.027V47.8482ZM160.242 40.0199C158.593 40.0199 157.251 41.4644 157.251 43.386C157.251 45.3698 158.593 46.8669 160.242 46.865C161.893 46.865 163.222 45.3698 163.222 43.386C163.222 41.4644 161.893 40.0199 160.242 40.0199ZM149.094 47.8481H147.962H147.96V39.0484H149.082L152.681 44.7682C152.978 45.2413 153.357 46.0395 153.357 46.0395H153.38C153.38 46.0395 153.3 45.253 153.3 44.7682V39.0484H154.436V47.8481H153.327L149.713 42.138C149.416 41.6532 149.039 40.855 149.039 40.855H149.014C149.014 40.855 149.094 41.6416 149.094 42.138V47.8481ZM141.9 47.8482H146.654V46.7794H143.034V39.0504H141.9V47.8482ZM139.7 47.8481H138.567V39.0484H139.7V47.8481ZM132.435 46.7811V43.7732H134.249C135.097 43.7732 135.646 44.3845 135.646 45.282C135.646 46.1815 135.129 46.7811 134.26 46.7811H132.435ZM132.435 40.1172V42.7513H134.134C134.868 42.7513 135.326 42.1886 135.326 41.4138C135.326 40.6428 134.891 40.1172 134.111 40.1172H132.435ZM131.303 47.8481H134.201C135.623 47.8481 136.802 47.0032 136.802 45.3445C136.802 44.3574 136.319 43.4872 135.474 43.2107V43.1854C136.092 42.835 136.48 42.1516 136.48 41.2892C136.48 39.868 135.494 39.0484 134.133 39.0484H131.303V47.8481ZM125.507 40.0199C123.856 40.0199 122.516 41.4644 122.516 43.386C122.516 45.3698 123.856 46.8669 125.507 46.865C127.156 46.865 128.487 45.3698 128.487 43.386C128.487 41.4644 127.156 40.0199 125.507 40.0199ZM112.86 47.8481H111.725L112.378 39.0484H113.569L115.424 43.8084C115.606 44.2951 115.826 44.994 115.826 44.994H115.848C115.848 44.994 116.068 44.2951 116.25 43.8084L118.105 39.0484H119.297L119.949 47.8481H118.828L118.425 42.3015C118.39 41.7662 118.415 41.0069 118.415 41.0069H118.39C118.39 41.0069 118.148 41.8148 117.955 42.3015L116.34 46.2653H115.334L113.732 42.3015C113.549 41.8285 113.295 40.9796 113.295 40.9796H113.272C113.272 40.9796 113.284 41.7662 113.249 42.3015L112.86 47.8481Z"
            fill="black" />
        <path fill-rule="evenodd" clip-rule="evenodd"
            d="M168.853 36.412C166.496 36.412 164.66 34.3947 164.66 31.799C164.66 29.2675 166.494 27.3125 168.853 27.3105C171.208 27.3105 173.032 29.2675 173.032 31.799C173.032 34.3947 171.21 36.412 168.853 36.412ZM196.041 31.799C196.041 34.3947 197.878 36.412 200.233 36.412C202.589 36.412 204.414 34.3947 204.414 31.799C204.414 29.2675 202.589 27.3105 200.233 27.3105C197.878 27.3105 196.041 29.2675 196.041 31.799ZM197.218 31.7991C197.218 29.8791 198.567 28.4322 200.233 28.4322C201.898 28.4322 203.236 29.8791 203.236 31.7991C203.236 33.7853 201.898 35.2788 200.233 35.2788C198.567 35.2788 197.218 33.7853 197.218 31.7991ZM188.995 36.264H187.853V27.4604H188.982L192.612 33.1815C192.912 33.6566 193.292 34.455 193.292 34.455H193.318C193.318 34.455 193.236 33.6683 193.236 33.1815V27.4604H194.378V36.264H193.26L189.619 30.5507C189.319 30.0658 188.939 29.2694 188.939 29.2694H188.914C188.914 29.2694 188.995 30.0542 188.995 30.5507V36.264ZM182.75 36.264H183.891V28.5314H186.685V27.4604H179.955V28.5314H182.75V36.264ZM176.775 36.4139C175.042 36.4139 174.074 35.2572 174.074 35.2572L174.72 34.3264C174.72 34.3264 175.585 35.2728 176.799 35.2728C177.562 35.2728 178.209 34.8113 178.209 33.9759C178.209 33.1047 177.386 32.7169 176.491 32.2953C175.425 31.7934 174.258 31.2437 174.258 29.7737C174.258 28.4009 175.354 27.3163 176.891 27.3163C178.406 27.3163 179.201 28.2003 179.201 28.2003L178.682 29.2207C178.682 29.2207 177.931 28.4593 176.891 28.4593C176.027 28.4593 175.412 29.0474 175.412 29.7445C175.412 30.5528 176.19 30.9063 177.056 31.2994C178.14 31.7919 179.361 32.3465 179.361 33.935C179.361 35.2962 178.391 36.4139 176.775 36.4139ZM165.836 31.7991C165.836 29.8791 167.189 28.4322 168.853 28.4322C170.516 28.4322 171.856 29.8791 171.856 31.7991C171.856 33.7853 170.516 35.2788 168.853 35.2788C167.189 35.2788 165.836 33.7853 165.836 31.7991ZM156.471 36.264H157.615V30.5507C157.615 30.0542 157.533 29.2694 157.533 29.2694H157.557C157.557 29.2694 157.937 30.0658 158.24 30.5507L161.88 36.264H162.998V27.4604H161.856V33.1815C161.856 33.6683 161.936 34.455 161.936 34.455H161.914C161.914 34.455 161.532 33.6566 161.232 33.1815L157.602 27.4604H156.471V36.264ZM151.92 36.412C150.729 36.412 149.507 35.6292 149.507 33.7345H149.509V33.2983H150.639V33.6702C150.639 34.8678 151.288 35.2787 151.932 35.2787C152.569 35.2787 153.204 34.8795 153.204 33.7208V28.5314H151.146V27.4604H154.345V33.7345C154.345 35.6408 153.11 36.412 151.92 36.412ZM145.545 28.6697C145.545 28.6697 145.72 29.468 145.857 29.9178L146.756 32.7141H144.286L145.2 29.9178C145.337 29.47 145.521 28.6697 145.521 28.6697H145.545ZM149.067 36.264H147.878L147.056 33.7325H143.985L143.177 36.264H141.999L144.932 27.4604H146.133L149.067 36.264ZM136.753 31.6898V28.5333H138.071C138.708 28.5333 138.971 28.6073 139.191 28.7338C139.606 28.9831 139.837 29.4446 139.837 30.093C139.837 31.0783 139.283 31.6898 138.392 31.6898H136.753ZM136.753 36.2639H135.612H135.61V27.4584H138.104C138.961 27.4584 139.318 27.5343 139.631 27.6589C140.463 27.9939 141.004 28.8799 141.004 30.0404C141.004 31.164 140.429 32.1123 139.539 32.4219V32.4492C139.539 32.4492 139.633 32.5602 139.783 32.8465L141.512 36.2639H140.221L138.501 32.7608H136.753V36.2639ZM130.51 36.264H131.65V28.5314H134.447V27.4604H127.713V28.5314H130.51V36.264ZM121.383 29.9178C121.246 29.468 121.071 28.6697 121.071 28.6697H121.048C121.048 28.6697 120.86 29.47 120.723 29.9178L119.81 32.7141H122.285L121.383 29.9178ZM123.405 36.264H124.593L121.659 27.4604H120.46L117.526 36.264H118.701L119.511 33.7325H122.582L123.405 36.264ZM116.876 36.264H110.896V35.4422L114.821 29.3298C115.134 28.8293 115.41 28.5197 115.41 28.5197V28.4924C115.41 28.4924 115.19 28.5314 114.799 28.5314H111.104V27.4604H116.831V28.2685L112.904 34.3946C112.592 34.8795 112.316 35.193 112.316 35.193V35.2183C112.316 35.2183 112.534 35.193 112.929 35.193H116.876V36.264Z"
            fill="black" />
        <path fill-rule="evenodd" clip-rule="evenodd"
            d="M143.825 20.2135C143.825 22.8098 145.649 24.8276 147.989 24.8276C150.329 24.8276 152.143 22.8078 152.143 20.2135C152.143 17.6815 150.329 15.7241 147.989 15.7241C145.649 15.7241 143.825 17.6815 143.825 20.2135ZM153.797 24.6794H154.933V21.1736H156.666L158.377 24.6794H159.662L157.94 21.2593C157.793 20.9749 157.7 20.862 157.7 20.862V20.8367C158.583 20.527 159.155 19.5785 159.155 18.4546C159.155 17.2938 158.617 16.4076 157.791 16.0726C157.479 15.948 157.124 15.874 156.273 15.874H153.795V24.6794H153.797ZM160.9 24.6794H162.038L162.426 19.1285C162.462 18.5929 162.452 17.8061 162.452 17.8061H162.475C162.475 17.8061 162.727 18.6553 162.91 19.1285L164.516 23.094H165.526L167.143 19.1285C167.338 18.6416 167.576 17.8314 167.576 17.8314H167.601C167.601 17.8314 167.576 18.5929 167.612 19.1285L168.015 24.6794H169.141L168.485 15.874H167.293L165.431 20.638C165.249 21.1269 165.032 21.8241 165.032 21.8241H165.007C165.007 21.8241 164.79 21.1269 164.604 20.638L162.747 15.874H161.554L160.9 24.6794ZM177.104 24.6794H175.923L175.108 22.1474H172.056L171.252 24.6794H170.081L172.997 15.874H174.188L177.104 24.6794ZM173.916 18.33C173.778 17.8801 173.604 17.0815 173.604 17.0815H173.583C173.583 17.0815 173.398 17.882 173.262 18.33L172.355 21.1269H174.809L173.916 18.33ZM154.933 16.9452V20.1023H156.56C157.443 20.1023 157.997 19.4908 157.997 18.5053C157.997 17.8567 157.766 17.3951 157.353 17.1458C157.137 17.0192 156.871 16.9452 156.241 16.9452H154.933ZM147.989 16.8441C146.335 16.8441 144.993 18.2932 144.993 20.2136C144.993 22.1983 146.335 23.6941 147.989 23.6941C149.643 23.6941 150.975 22.1983 150.975 20.2136C150.975 18.2932 149.643 16.8441 147.989 16.8441ZM139.53 24.6794H138.395V15.874H142.857V16.9452H139.53V19.8394H142.364V20.9107H139.53V24.6794ZM133.322 24.6794H134.459V16.9452H137.234V15.874H130.547V16.9452H133.322V24.6794ZM127.699 18.33C127.561 17.8801 127.389 17.0815 127.389 17.0815H127.368C127.368 17.0815 127.183 17.882 127.045 18.33L126.141 21.1269H128.594L127.699 18.33ZM129.706 24.6794H130.889L127.974 15.874H126.78L123.866 24.6794H125.037L125.839 22.1474H128.893L129.706 24.6794ZM123.451 24.6794H118.692V15.874H119.826V23.6082H123.451V24.6794ZM112.857 20.3517V16.9452H114.513C115.477 16.9452 116.074 17.5684 116.074 18.6299C116.074 19.6914 115.477 20.3536 114.5 20.3536H112.857V20.3517ZM112.859 24.6797H111.727V15.8723H114.687C116.167 15.8723 117.233 16.9571 117.233 18.6283C117.233 20.3013 116.167 21.4232 114.687 21.4232H112.859V24.6797Z"
            fill="black" />
        <path fill-rule="evenodd" clip-rule="evenodd"
            d="M114.394 14.0693C112.682 14.0693 111.725 12.9106 111.725 12.9106L112.364 11.976C112.364 11.976 113.218 12.9223 114.419 12.9223C115.171 12.9223 115.811 12.4608 115.811 11.6235C115.811 10.7525 114.998 10.3651 114.114 9.94383C113.061 9.44217 111.908 8.89262 111.908 7.42132C111.908 6.05045 112.992 4.96582 114.51 4.96582C116.007 4.96582 116.791 5.84988 116.791 5.84988L116.278 6.87219C116.278 6.87219 115.537 6.11276 114.51 6.11276C113.655 6.11276 113.049 6.69888 113.049 7.396C113.049 8.20427 113.818 8.55816 114.673 8.95174C115.744 9.44473 116.95 9.99998 116.95 11.5885C116.95 12.9476 115.991 14.0693 114.394 14.0693ZM128.001 14.0693C125.674 14.0693 123.86 12.05 123.86 9.45433C123.86 6.92289 125.674 4.9659 128.001 4.9659C130.329 4.9659 132.133 6.92289 132.133 9.45433C132.133 12.05 130.329 14.0693 128.001 14.0693ZM155.51 12.9107C155.51 12.9107 156.467 14.0693 158.179 14.0693C159.776 14.0693 160.737 12.9477 160.737 11.5885C160.737 10.0001 159.53 9.4448 158.458 8.95181C157.603 8.55824 156.834 8.20434 156.834 7.39608C156.834 6.69896 157.44 6.11283 158.295 6.11283C159.322 6.11283 160.063 6.87227 160.063 6.87227L160.575 5.84995C160.575 5.84995 159.79 4.9659 158.295 4.9659C156.775 4.9659 155.693 6.05052 155.693 7.42139C155.693 8.89269 156.846 9.44225 157.899 9.9439C158.783 10.3651 159.596 10.7526 159.596 11.6236C159.596 12.4609 158.956 12.9224 158.204 12.9224C157.003 12.9224 156.149 11.976 156.149 11.976L155.51 12.9107ZM163.488 13.9192H162.358V5.11567H163.488V8.81937H164.686L166.718 5.11373H167.962L165.623 9.29255V9.31787L168.111 13.9192H166.833L164.686 9.87868H163.488V13.9192ZM174.274 13.9193H175.449L172.551 5.11575H171.364L168.466 13.9193H169.628L170.428 11.3879H173.464L174.274 13.9193ZM171.968 6.32298C171.968 6.32298 172.141 7.12136 172.278 7.57118L173.167 10.3655H170.726L171.628 7.57118C171.763 7.12136 171.948 6.32298 171.948 6.32298H171.968ZM148.614 13.9193H147.484V5.11575H148.604L152.189 10.8407C152.485 11.3139 152.861 12.1123 152.861 12.1123H152.884C152.884 12.1123 152.806 11.3275 152.806 10.8407V5.11575H153.934V13.9193H152.827L149.231 8.208C148.935 7.72118 148.557 6.92281 148.557 6.92281H148.534C148.534 6.92281 148.614 7.7095 148.614 8.208V13.9193ZM140.945 13.9193H145.816V12.8483H142.072V10.0151H144.961V8.94406H142.072V6.18674H145.622V5.11575H140.944V13.9193H140.945ZM136.814 13.9193H135.683L132.703 5.11575H133.925L135.922 11.3392C136.068 11.8143 136.228 12.5504 136.228 12.5504H136.253C136.253 12.5504 136.413 11.8124 136.56 11.3392L138.582 5.11575H139.78L136.814 13.9193ZM125.022 9.45441C125.022 7.53441 126.357 6.0876 128.002 6.0876C129.645 6.0876 130.971 7.53441 130.971 9.45441C130.971 11.4387 129.645 12.9342 128.002 12.9342C126.357 12.9342 125.022 11.4387 125.022 9.45441ZM118.572 13.9193H123.309V12.8483H119.703V5.11575H118.572V13.9193Z"
            fill="black" />
        <path
            d="M0 17.6775H5.53927V18.6345C5.53927 19.482 6.49339 19.9978 8.40342 19.9978C9.96961 19.9978 10.8085 19.6296 10.8085 18.8932C10.8085 17.7139 9.47275 17.5663 6.95064 16.757C4.0847 15.8365 0.685883 14.5078 0.685883 10.6764C0.685883 6.21805 5.34665 4.96582 9.12711 4.96582C12.1443 4.96582 16.652 5.99574 16.652 9.09246V11.6716H11.1164V10.8223C11.1164 10.2335 10.5421 9.79066 9.12891 9.79066C8.05958 9.79066 7.25668 10.013 7.25668 10.7494C7.25668 11.8905 8.82287 12.3333 10.6951 12.8127C13.6745 13.5873 17.3793 14.7666 17.3793 18.7091C17.3793 22.9851 13.0642 24.8279 8.40342 24.8279C4.88939 24.8279 0 23.3898 0 20.2184V17.6775Z"
            fill="white" />
        <path fill-rule="evenodd" clip-rule="evenodd"
            d="M20.8485 10.177V27.5305H18.392V32.2756H29.8297V27.5305H27.375V24.4196C27.375 23.4315 27.3003 22.7478 27.3003 22.7478H27.375C27.375 22.7478 29.1502 24.6111 32.32 24.6111C37.491 24.6111 41.3794 20.5837 41.3794 14.3923C41.3794 8.31364 37.9055 4.1377 32.6206 4.1377C28.5081 4.1377 26.7346 6.83514 26.7346 6.83514H26.6599C26.6599 6.83514 26.6972 6.57023 26.6972 6.34112V6.22656C26.6972 5.50521 26.0942 4.59234 24.2069 4.59234H18.207V9.34285H20.0196C20.5462 9.34285 20.8485 9.64536 20.8485 10.177ZM34.8138 14.5067C34.8138 17.5084 33.0386 19.1784 31 19.1784C28.435 19.1784 27.1899 16.8622 27.1881 14.5067C27.1881 11.1273 29.038 9.68456 31 9.68456C33.2662 9.68456 34.8138 11.5819 34.8138 14.5067Z"
            fill="white" />
        <path
            d="M44.9571 9.94772H42.207V5.23751H45.1553V0H51.7555V5.23751H56.0001V9.94772H51.7555V16.8027C51.7555 19.1391 54.0741 19.4764 55.3723 19.4764C55.9223 19.4764 56.276 19.4392 56.276 19.4392V24.714C56.276 24.714 55.5297 24.8276 54.4296 24.8276C51.2073 24.8276 44.959 23.9967 44.959 17.4791V9.94772H44.9571Z"
            fill="white" />
        <path
            d="M58.1197 20.1177H60.5437V10.9193C60.5437 10.3936 60.2467 10.1289 59.7228 10.1289H57.9316V5.41695H64.0119C65.7644 5.41695 66.696 6.28368 66.696 7.60332V8.24272C66.696 8.43098 66.6591 8.69562 66.6591 8.69562H66.7347C67.7032 7.18949 69.5682 4.96582 72.8131 4.96582C74.9014 4.96582 76.8789 5.90715 77.8123 8.62102H77.8861C78.9285 6.54832 81.2804 4.96582 84.2247 4.96582C87.5083 4.96582 90.268 6.88756 90.268 12.2389V20.1177H92.6903V24.8279H83.8134V13.3312C83.8134 11.8997 83.5532 10.882 82.3228 10.882C79.5261 10.882 78.6297 13.5586 78.6297 16.7999V20.1177H81.0537V24.8279H72.1768V13.3312C72.1768 11.8997 71.9167 10.882 70.6844 10.882C67.7384 10.882 66.9913 14.047 66.9913 17.1765V20.1159H69.4171V24.8261H58.1162V20.1177H58.1197Z"
            fill="white" />
    </svg>